<svg width="100" height="100" viewBox="0 0 100 100" fill="none" xmlns="http://www.w3.org/2000/svg">
  <defs>
    <linearGradient id="gold-gradient" x1="0" y1="0" x2="100" y2="100" gradientUnits="userSpaceOnUse">
      <stop offset="0%" stop-color="#D4AF37"/>
      <stop offset="50%" stop-color="#F9D976"/>
      <stop offset="100%" stop-color="#C5A028"/>
    </linearGradient>
    <filter id="glow" x="-20%" y="-20%" width="140%" height="140%">
      <feGaussianBlur stdDeviation="3" result="blur" />
      <feComposite in="SourceGraphic" in2="blur" operator="over" />
    </filter>
  </defs>
  
  <!-- Outer Shield Hexagon -->
  <path d="M50 10L85 30V70L50 90L15 70V30L50 10Z" stroke="url(#gold-gradient)" stroke-width="2" stroke-linecap="round" stroke-linejoin="round" opacity="0.4"/>
  
  <!-- Main House Icon -->
  <path d="M50 25L80 50H70V75H30V50H20L50 25Z" fill="url(#gold-gradient)" filter="url(#glow)"/>
  
  <!-- Heart Core (Care Symbol) -->
  <path d="M50 62L46.5 58.5C41 53.5 37 49.5 37 45.5C37 42.5 39.5 40 42.5 40C44.5 40 46 41 47.5 42.5L50 45L52.5 42.5C54 41 55.5 40 57.5 40C60.5 40 63 42.5 63 45.5C63 49.5 59 53.5 53.5 58.5L50 62Z" fill="#050505"/>
  
  <!-- Decorative Support Dot -->
  <circle cx="50" cy="18" r="3" fill="url(#gold-gradient)" />
</svg>
